<svg width="43" height="43" viewBox="0 0 43 43" fill="none" xmlns="http://www.w3.org/2000/svg">
<path d="M35.8501 39.9497L39.3248 30.3916C39.4967 29.919 39.4889 29.3998 39.303 28.9326C39.117 28.4654 38.7658 28.0829 38.3162 27.8578L22.4164 19.9079C22.1319 19.7657 21.8182 19.6917 21.5001 19.6917C21.182 19.6917 20.8683 19.7657 20.5837 19.9079L4.68393 27.8578C4.23414 28.0827 3.88274 28.4652 3.69658 28.9324C3.51042 29.3996 3.50249 29.9189 3.67431 30.3916L7.15008 39.9497" stroke="white" stroke-width="2" stroke-linejoin="round"/>
<path d="M26.625 11.25V3.05C26.625 2.50631 26.409 1.98488 26.0246 1.60043C25.6401 1.21598 25.1187 1 24.575 1H18.425C17.8813 1 17.3599 1.21598 16.9754 1.60043C16.591 1.98488 16.375 2.50631 16.375 3.05V11.25M32.775 11.25H10.225C9.68129 11.25 9.15987 11.466 8.77542 11.8504C8.39097 12.2349 8.17499 12.7563 8.17499 13.3V25.6L20.641 19.8467C20.9103 19.7224 21.2034 19.658 21.5 19.658C21.7966 19.658 22.0896 19.7224 22.3589 19.8467L34.825 25.6V13.3C34.825 12.7563 34.609 12.2349 34.2246 11.8504C33.8401 11.466 33.3187 11.25 32.775 11.25Z" stroke="white" stroke-width="2" stroke-linecap="round" stroke-linejoin="round"/>
<path d="M21.5 29.7V37.9" stroke="white" stroke-width="2" stroke-linecap="round"/>
<path d="M1 42C5.1 42 5.1 39.95 8.175 39.95C11.25 39.95 11.25 42 14.325 42C17.4 42 17.9125 39.95 21.5 39.95C25.0875 39.95 25.6 42 28.675 42C31.75 42 31.75 39.95 34.825 39.95C37.9 39.95 37.9 42 42 42" stroke="white" stroke-width="2" stroke-linecap="round" stroke-linejoin="round"/>
</svg>
