<svg width="39" height="39" viewBox="0 0 39 39" fill="none" xmlns="http://www.w3.org/2000/svg">
<path d="M38.2902 4.1573C38.1203 4.8043 37.9829 5.4616 37.7755 6.09537C37.2807 7.60407 36.4675 8.93117 35.3551 10.0642C34.2067 11.2332 33.045 12.3882 31.8797 13.5404C31.6995 13.7183 31.6635 13.869 31.7341 14.1175C33.1774 19.1825 34.603 24.2527 36.0529 29.3155C36.2374 29.9589 36.1176 30.4375 35.6404 30.8978C34.6199 31.883 33.6303 32.8998 32.6252 33.9005C31.8694 34.6533 31.0922 34.5276 30.5945 33.5755C28.516 29.5942 26.4389 25.6122 24.3604 21.6309C24.3046 21.5235 24.2457 21.4169 24.1737 21.2809C24.0818 21.3625 24.0002 21.4272 23.9274 21.5C22.3356 23.0903 20.749 24.685 19.1491 26.268C18.966 26.4496 18.9366 26.6055 19.0028 26.84C19.652 29.1523 20.2828 31.4698 20.9409 33.7791C21.1034 34.3497 20.9945 34.7938 20.571 35.2048C19.7035 36.0488 18.8557 36.9134 17.9992 37.7693C17.2154 38.5523 16.4655 38.4515 15.9354 37.4906C14.2848 34.4975 12.6386 31.5029 10.9777 28.5156C10.8674 28.3171 10.677 28.1289 10.4785 28.0178C7.45888 26.3386 4.43119 24.674 1.40717 23.0028C0.727817 22.6278 0.517541 21.9566 0.89251 21.3765C0.964563 21.2647 1.06308 21.1691 1.15719 21.0743C2.038 20.1913 2.92837 19.3178 3.79815 18.4238C4.19886 18.012 4.63338 17.8907 5.18922 18.0481C7.51109 18.7046 9.83957 19.3406 12.1622 19.9935C12.3989 20.0604 12.5533 20.0266 12.7335 19.845C14.3076 18.2547 15.8935 16.6754 17.475 15.0924C17.5522 15.0152 17.6242 14.9344 17.7286 14.8241C16.8449 14.3623 15.9847 13.9116 15.1237 13.4624C11.8666 11.7626 8.60879 10.0634 5.3517 8.36283C4.48927 7.91287 4.36355 7.11073 5.05026 6.42035C6.07591 5.38808 7.11847 4.37198 8.13089 3.32795C8.57423 2.87064 9.04258 2.76109 9.65282 2.93534C14.7274 4.38522 19.8079 5.81672 24.8832 7.26439C25.1332 7.33571 25.2824 7.29674 25.4596 7.11735C26.55 6.01156 27.6513 4.91606 28.7505 3.81909C30.3997 2.17363 32.3693 1.14872 34.6736 0.773749C34.7316 0.764191 34.7853 0.73037 34.8412 0.708313C35.1838 0.708313 35.5264 0.708313 35.8683 0.708313C36.2308 0.868594 36.6153 0.992113 36.9506 1.19651C37.6998 1.65235 38.0784 2.37729 38.2902 3.2037V4.1573ZM3.65111 21.7059C3.79007 21.7882 3.88197 21.8456 3.97682 21.897C6.61631 23.3521 9.25506 24.81 11.899 26.2577C12.2666 26.4592 12.5349 26.7238 12.7371 27.0929C14.1789 29.7273 15.6325 32.3543 17.0831 34.9835C17.1449 35.0952 17.2147 35.2018 17.3095 35.357C17.7154 34.9408 18.0786 34.5453 18.4697 34.1791C18.6528 34.0078 18.6602 33.849 18.5991 33.6306C17.9639 31.3529 17.3559 29.0678 16.6942 26.7981C16.4964 26.1209 16.6427 25.6438 17.1301 25.1578C22.5944 19.7119 28.0425 14.2499 33.5038 8.80103C34.8897 7.41806 35.7624 5.78657 36.0668 3.8507C36.1573 3.27649 35.7272 2.84049 35.1566 2.92945C33.2207 3.23164 31.5885 4.10068 30.2048 5.48807C24.7398 10.9678 19.2609 16.4335 13.7959 21.9125C13.3393 22.3705 12.8746 22.497 12.2453 22.3154C9.96162 21.6566 7.66769 21.0346 5.37523 20.406C5.24656 20.3707 5.04585 20.3405 4.97085 20.4096C4.52236 20.8184 4.10107 21.2574 3.65258 21.7044L3.65111 21.7059ZM29.846 15.5806C28.5439 16.8827 27.2962 18.14 26.0353 19.3825C25.8552 19.5604 25.8368 19.6832 25.9537 19.9067C27.9087 23.6344 29.8534 27.3679 31.801 31.0992C31.8503 31.1933 31.9069 31.283 31.9907 31.4271C32.5296 30.8808 33.0311 30.3507 33.5597 29.8486C33.7648 29.6537 33.8023 29.4876 33.7251 29.2163C32.745 25.796 31.7782 22.372 30.8077 18.9495C30.4952 17.8488 30.1806 16.7496 29.8468 15.5806H29.846ZM7.57726 7.02986C11.5358 9.09439 15.4553 11.1391 19.3028 13.1463C20.6666 11.7839 21.993 10.4583 23.3179 9.13483C23.273 9.11939 23.1944 9.08778 23.1142 9.06425C21.0864 8.48782 19.0587 7.9114 17.0309 7.33571C14.5921 6.64386 12.1541 5.95053 9.71385 5.26456C9.59841 5.23221 9.41534 5.20795 9.34991 5.2697C8.76025 5.83289 8.18971 6.41593 7.57799 7.02912L7.57726 7.02986Z" fill="white"/>
</svg>
