<svg width="33" height="25" viewBox="0 0 33 25" fill="none" xmlns="http://www.w3.org/2000/svg">
<g clip-path="url(#clip0_1416_1671)">
<path d="M30.099 25H2.48333C1.82624 24.9956 1.19728 24.7327 0.732541 24.2682C0.267799 23.8036 0.00464002 23.1748 0 22.5177L0 7.01979C0.00436433 6.3627 0.267259 5.73374 0.731807 5.269C1.19635 4.80426 1.8252 4.5411 2.48229 4.53646H30.099C30.756 4.54082 31.385 4.80372 31.8497 5.26827C32.3145 5.73281 32.5776 6.36166 32.5823 7.01875V22.5198C32.5824 22.8455 32.5184 23.1681 32.3938 23.4691C32.2692 23.7701 32.0865 24.0435 31.8562 24.2739C31.6258 24.5042 31.3523 24.6869 31.0514 24.8115C30.7504 24.9361 30.4278 25.0001 30.1021 25H30.099ZM2.48333 6.19271H2.47604C2.25862 6.19271 2.0501 6.27908 1.89636 6.43282C1.74262 6.58656 1.65625 6.79508 1.65625 7.0125V22.5281C1.65625 22.9813 2.02292 23.3479 2.47604 23.3479H30.1073C30.3247 23.3479 30.5332 23.2615 30.687 23.1078C30.8407 22.9541 30.9271 22.7455 30.9271 22.5281V7.0125C30.9271 6.79508 30.8407 6.58656 30.687 6.43282C30.5332 6.27908 30.3247 6.19271 30.1073 6.19271H30.099H2.48333ZM23.6094 1.98646V1.99062C23.6094 2.22656 23.5156 2.45283 23.3488 2.61966C23.182 2.78648 22.9557 2.88021 22.7198 2.88021H9.86458C9.62865 2.88021 9.40238 2.78648 9.23555 2.61966C9.06872 2.45283 8.975 2.22656 8.975 1.99062V1.98229C8.975 1.49062 9.37396 1.09271 9.86458 1.09271H22.7156C22.9491 1.10336 23.1701 1.2008 23.3354 1.36594C23.5007 1.53107 23.5985 1.75304 23.6094 1.98646ZM26.7219 2.64896V2.66354C26.7219 3.40521 26.1208 4.00625 25.3792 4.00625H25.3635H25.35C24.994 4.00597 24.6526 3.86442 24.4009 3.61267C24.1491 3.36093 24.0076 3.01957 24.0073 2.66354V2.64792V1.34271C24.0073 0.601042 24.6083 0 25.35 0H25.3656H25.3792C26.1208 0 26.7219 0.601042 26.7219 1.34271V1.35833V1.35729V2.64896ZM8.57604 2.64896V2.66354C8.57604 3.40521 7.975 4.00625 7.23333 4.00625H7.21771H7.20417C6.84814 4.00597 6.50678 3.86442 6.25503 3.61267C6.00329 3.36093 5.86173 3.01957 5.86146 2.66354V2.64792V1.34271C5.86146 0.601042 6.4625 0 7.20417 0H7.21979H7.21875H7.23333C7.975 0 8.57604 0.601042 8.57604 1.34271V1.35833V1.35729V2.64896ZM31.0604 1.98646V1.99062C31.0604 2.22656 30.9667 2.45283 30.7999 2.61966C30.633 2.78648 30.4068 2.88021 30.1708 2.88021H27.9448C27.7089 2.88021 27.4826 2.78648 27.3158 2.61966C27.1489 2.45283 27.0552 2.22656 27.0552 1.99062V1.98229C27.0552 1.49062 27.4542 1.09271 27.9448 1.09271H30.1667C30.4001 1.10336 30.6211 1.2008 30.7865 1.36594C30.9518 1.53107 31.0495 1.75304 31.0604 1.98646ZM5.49687 1.98646V1.99062C5.49687 2.22656 5.40315 2.45283 5.23632 2.61966C5.06949 2.78648 4.84322 2.88021 4.60729 2.88021H2.41354C2.17761 2.88021 1.95134 2.78648 1.78451 2.61966C1.61768 2.45283 1.52396 2.22656 1.52396 1.99062V1.98229C1.52396 1.49062 1.92292 1.09271 2.41354 1.09271H4.63542C4.86559 1.10435 5.08269 1.20324 5.24253 1.36928C5.40237 1.53531 5.49399 1.75601 5.49687 1.98646Z" fill="white"/>
<path d="M5.89376 15.1646V17.2479H7.91355V15.1646H9.13855V20.5958H7.91355V18.3104H5.89376V20.5958H4.66876V15.1646H5.89376ZM15.199 17.8156C15.2364 18.1795 15.1971 18.5471 15.0836 18.8949C14.9701 19.2426 14.7848 19.5626 14.5399 19.8342C14.2949 20.1059 13.9957 20.3231 13.6616 20.4719C13.3274 20.6207 12.9658 20.6977 12.6 20.6979L12.5115 20.6969H12.5156H12.4854C12.1309 20.697 11.7803 20.6227 11.4563 20.4787C11.1323 20.3347 10.8422 20.1242 10.6047 19.8609C10.3672 19.5976 10.1877 19.2874 10.0778 18.9503C9.96793 18.6132 9.93006 18.2568 9.96668 17.9042L9.96564 17.9146C9.93507 17.5521 9.98008 17.1873 10.0978 16.8431C10.2155 16.499 10.4034 16.183 10.6496 15.9152C10.8957 15.6474 11.1948 15.4336 11.5278 15.2874C11.8609 15.1412 12.2207 15.0656 12.5844 15.0656H12.6167H12.6146L12.6781 15.0646C13.0297 15.0646 13.3775 15.1379 13.6992 15.2798C14.0208 15.4218 14.3094 15.6293 14.5463 15.8891C14.7832 16.1488 14.9634 16.4552 15.0752 16.7885C15.1871 17.1219 15.2282 17.4749 15.1958 17.825L15.1969 17.8156H15.199ZM11.2917 17.8813C11.2917 18.9417 11.7917 19.7021 12.6156 19.7021C13.4396 19.7021 13.9073 18.9073 13.9073 17.8479C13.9073 16.8542 13.4438 16.0271 12.5833 16.0271C11.7563 16.025 11.2917 16.8208 11.2917 17.8792V17.8813ZM16.8542 16.1917H15.3979V15.1646H19.5708V16.1917H18.0813V20.5958H16.8563L16.8542 16.1917ZM23.4438 18.2771H21.4573V19.5688H23.7073V20.5625H20.199V15.1646H23.5427V16.1583H21.424V17.2844H23.4104V18.2781L23.4438 18.2771ZM24.5365 15.1646H25.7615V19.5688H27.9136V20.5958H24.5365V15.1646ZM16.2917 11.6896L14.5031 12.6531L14.8365 10.6667L13.4104 9.23647L15.3969 8.93855L16.2906 7.15314L17.1844 8.94168L19.1708 9.23959L17.7469 10.6636L18.0802 12.65L16.2917 11.6896ZM22.4833 11.9198L21.1261 12.6479L21.3906 11.125L20.2969 10.0656L21.7865 9.86772L22.4813 8.47709L23.1438 9.86772L24.6667 10.0656L23.574 11.1261L23.8052 12.649L22.4833 11.9198ZM26.4229 12.1854L25.5292 12.649L25.6958 11.6552L24.9677 10.9604L25.9615 10.7938L26.425 9.90001L26.8563 10.7938L27.85 10.9604L27.1552 11.6552L27.3219 12.649L26.4229 12.1854ZM10.1323 11.9198L11.4563 12.6479L11.1917 11.125L12.2844 10.0646L10.7948 9.86668L10.1333 8.47709L9.43855 9.86772L7.94793 10.0656L9.04064 11.1261L8.77605 12.649L10.1323 11.9198ZM6.15939 12.1854L7.05314 12.649L6.88647 11.6552L7.6146 10.9604L6.62085 10.7938L6.15835 9.90001L5.7271 10.7938L4.73335 10.9604L5.46147 11.6552L5.2948 12.649L6.15939 12.1854Z" fill="white"/>
</g>
<defs>
<clipPath id="clip0_1416_1671">
<rect width="32.2917" height="25" fill="white"/>
</clipPath>
</defs>
</svg>
