<svg width="41" height="41" viewBox="0 0 41 41" fill="none" xmlns="http://www.w3.org/2000/svg">
<path d="M30.7497 13.513C30.6985 13.513 30.6643 13.513 30.6131 13.513H30.5276C27.2989 13.4105 24.8901 10.9163 24.8901 7.84128C24.8901 4.69795 27.4526 2.15253 30.5789 2.15253C33.7051 2.15253 36.2676 4.71503 36.2676 7.84128C36.2506 10.9334 33.8418 13.4275 30.7668 13.53C30.7668 13.5129 30.7668 13.513 30.7497 13.513ZM30.5789 4.69795C28.8535 4.69795 27.4526 6.09879 27.4526 7.82421C27.4526 9.51546 28.7681 10.8821 30.4593 10.9505C30.4764 10.9334 30.6131 10.9334 30.7668 10.9505C32.4239 10.865 33.7051 9.49837 33.7222 7.82421C33.7222 6.09879 32.3214 4.69795 30.5789 4.69795Z" fill="white"/>
<path d="M30.7671 26.1034C30.1008 26.1034 29.4346 26.0521 28.7683 25.9325C28.0679 25.813 27.6066 25.1467 27.7262 24.4463C27.8458 23.7459 28.5121 23.2846 29.2125 23.4042C31.3137 23.763 33.5346 23.3701 35.0208 22.3792C35.8237 21.8496 36.2508 21.1834 36.2508 20.5171C36.2508 19.8509 35.8066 19.2017 35.0208 18.6721C33.5346 17.6813 31.2796 17.2884 29.1612 17.6642C28.4608 17.8009 27.7946 17.3225 27.675 16.6221C27.5554 15.9217 28.0167 15.2555 28.7171 15.1359C31.5017 14.6405 34.3887 15.17 36.4387 16.5367C37.9421 17.5446 38.8133 18.9796 38.8133 20.5171C38.8133 22.0375 37.9592 23.4896 36.4387 24.5146C34.8842 25.5396 32.8683 26.1034 30.7671 26.1034Z" fill="white"/>
<path d="M10.1987 13.5129C10.1816 13.5129 10.1645 13.5129 10.1645 13.5129C7.08953 13.4104 4.68078 10.9163 4.6637 7.84126C4.6637 4.69793 7.2262 2.13544 10.3524 2.13544C13.4787 2.13544 16.0412 4.69794 16.0412 7.82419C16.0412 10.9163 13.6324 13.4104 10.5574 13.5129L10.1987 12.2317L10.3183 13.5129C10.2841 13.5129 10.2329 13.5129 10.1987 13.5129ZM10.3695 10.9504C10.472 10.9504 10.5574 10.9504 10.6599 10.9675C12.1804 10.8992 13.5129 9.53251 13.5129 7.84126C13.5129 6.11585 12.112 4.71501 10.3866 4.71501C8.6612 4.71501 7.26036 6.11585 7.26036 7.84126C7.26036 9.51543 8.5587 10.865 10.2158 10.9675C10.2329 10.9504 10.3012 10.9504 10.3695 10.9504Z" fill="white"/>
<path d="M10.1817 26.1034C8.08044 26.1034 6.0646 25.5396 4.51002 24.5146C3.00669 23.5067 2.13544 22.0546 2.13544 20.5171C2.13544 18.9967 3.00669 17.5446 4.51002 16.5367C6.56002 15.17 9.4471 14.6405 12.2317 15.1359C12.9321 15.2555 13.3934 15.9217 13.2738 16.6221C13.1542 17.3225 12.4879 17.8009 11.7875 17.6642C9.66919 17.2884 7.43127 17.6813 5.92794 18.6721C5.12502 19.2017 4.69794 19.8509 4.69794 20.5171C4.69794 21.1834 5.14211 21.8496 5.92794 22.3792C7.41419 23.3701 9.63502 23.763 11.7363 23.4042C12.4367 23.2846 13.1029 23.763 13.2225 24.4463C13.3421 25.1467 12.8809 25.813 12.1804 25.9325C11.5142 26.0521 10.8479 26.1034 10.1817 26.1034Z" fill="white"/>
<path d="M20.4997 26.2741C20.4485 26.2741 20.4143 26.2741 20.3631 26.2741H20.2776C17.0489 26.1716 14.6401 23.6775 14.6401 20.6024C14.6401 17.4591 17.2026 14.9137 20.3289 14.9137C23.4551 14.9137 26.0176 17.4762 26.0176 20.6024C26.0006 23.6945 23.5918 26.1887 20.5168 26.2912C20.5168 26.2741 20.5168 26.2741 20.4997 26.2741ZM20.3289 17.4591C18.6035 17.4591 17.2026 18.86 17.2026 20.5854C17.2026 22.2766 18.5181 23.6433 20.2093 23.7116C20.2264 23.6945 20.3631 23.6945 20.5168 23.7116C22.1739 23.6262 23.4551 22.2595 23.4722 20.5854C23.4722 18.877 22.0714 17.4591 20.3289 17.4591Z" fill="white"/>
<path d="M20.4996 38.8816C18.4496 38.8816 16.3996 38.352 14.8109 37.2758C13.3075 36.2679 12.4363 34.8329 12.4363 33.2954C12.4363 31.775 13.2904 30.3058 14.8109 29.2979C18.0054 27.1795 23.0109 27.1795 26.1884 29.2979C27.6917 30.3058 28.563 31.7408 28.563 33.2783C28.563 34.7987 27.7088 36.2679 26.1884 37.2758C24.5996 38.335 22.5496 38.8816 20.4996 38.8816ZM16.2288 31.4504C15.4259 31.98 14.9988 32.6462 14.9988 33.3125C14.9988 33.9787 15.4429 34.6279 16.2288 35.1575C18.535 36.712 22.4471 36.712 24.7534 35.1575C25.5563 34.6279 25.9834 33.9616 25.9834 33.2954C25.9834 32.6291 25.5392 31.98 24.7534 31.4504C22.4642 29.8958 18.5521 29.9129 16.2288 31.4504Z" fill="white"/>
</svg>
